<?xml version="1.0" standalone="no"?>
<!DOCTYPE svg PUBLIC "-//W3C//DTD SVG 1.1//EN" "http://www.w3.org/Graphics/SVG/1.1/DTD/svg11.dtd" >
<svg xmlns="http://www.w3.org/2000/svg">
<metadata></metadata>
<defs>
<font id="franklin_gothic_fscondensed" horiz-adv-x="1046" >
<font-face units-per-em="2048" ascent="1694" descent="-354" />
<missing-glyph horiz-adv-x="382" />
<glyph unicode="&#xfb01;" horiz-adv-x="907" d="M162 0v887h-146v123h146q1 148 15 209.5t56 107.5q62 68 203 68q34 0 86 -9v-122q-27 6 -49 6q-68 0 -102.5 -21.5t-46.5 -72.5q-13 -54 -13 -166h187v-123h-187v-887h-149zM614 1190v174h164v-174h-164zM623 0v1010h149v-1010h-149z" />
<glyph unicode="&#xfb02;" horiz-adv-x="905" d="M162 0v887h-146v123h146q1 148 15 209.5t56 107.5q62 68 203 68q34 0 86 -9v-122q-27 6 -49 6q-68 0 -102.5 -21.5t-46.5 -72.5q-13 -54 -13 -166h187v-123h-187v-887h-149zM623 0v1366h149v-1366h-149z" />
<glyph horiz-adv-x="0" />
<glyph horiz-adv-x="682" />
<glyph unicode=" "  horiz-adv-x="382" />
<glyph unicode="&#x09;" horiz-adv-x="382" />
<glyph unicode="&#xa0;" horiz-adv-x="382" />
<glyph unicode="!" horiz-adv-x="698" d="M299 336l-55 1030h209l-56 -1030h-98zM256 0v209h186v-209h-186z" />
<glyph unicode="&#x22;" d="M608 838l-28 528h168l-29 -528h-111zM330 838l-29 528h166l-27 -528h-110z" />
<glyph unicode="#" d="M150 0l77 432h-209l21 117h209l55 303h-209l21 117h209l73 397h123l-71 -397h245l72 397h123l-72 -397h209l-20 -117h-209l-56 -303h209l-20 -117h-209l-78 -432h-125l80 432h-248l-78 -432h-122zM373 549h245l56 303h-248z" />
<glyph unicode="$" d="M109 350l131 62q32 -112 89.5 -171t147.5 -73v475q-113 33 -176 78q-64 44 -100.5 116.5t-36.5 157.5q0 93 42 172t116 125q60 36 155 49v136h113v-136q137 -15 213.5 -75.5t114.5 -186.5l-119 -49q-40 97 -83 136.5t-126 52.5v-441q183 -43 264.5 -127.5t81.5 -232.5 q0 -164 -88.5 -260.5t-257.5 -118.5v-176h-113v176q-152 22 -238.5 95t-129.5 216zM477 803v416q-84 -15 -129 -68.5t-45 -138.5q0 -83 41 -132t133 -77zM590 168q98 9 152.5 68t54.5 157q0 95 -48 147t-159 78v-450z" />
<glyph unicode="%" horiz-adv-x="1394" d="M365 674q-120 0 -193.5 97t-73.5 257q0 161 73.5 257.5t195.5 96.5q120 0 193 -97.5t73 -256.5q0 -160 -73.5 -257t-194.5 -97zM297 0l684 1366h119l-682 -1366h-121zM365 778q72 0 104.5 60t32.5 190q0 129 -33 189.5t-102 60.5q-72 0 -105 -59t-33 -189 q0 -132 32.5 -192t103.5 -60zM762 338q0 161 73.5 257.5t196.5 96.5q119 0 191.5 -97t72.5 -257t-73 -257t-193 -97q-121 0 -194.5 97t-73.5 257zM893 338q0 -131 32.5 -190.5t104.5 -59.5q70 0 102.5 59.5t32.5 190.5q0 129 -32 189.5t-101 60.5q-73 0 -106 -59.5 t-33 -190.5z" />
<glyph unicode="&#x26;" horiz-adv-x="1255" d="M1186 131v-131q-76 -23 -115 -23q-61 0 -102.5 28t-104.5 112q-85 -79 -161 -112.5t-171 -33.5q-172 0 -281.5 113.5t-109.5 290.5q0 135 70.5 235.5t216.5 175.5q-62 109 -87.5 182t-25.5 140q0 122 84.5 204.5t208.5 82.5q123 0 196 -74t73 -197q0 -114 -63.5 -205.5 t-197.5 -173.5l271 -405q92 140 133 408l125 -35q-29 -167 -70.5 -278t-111.5 -210q49 -67 78 -87.5t75 -20.5q27 0 70 14zM551 842q186 114 186 272q0 72 -38.5 117t-100.5 45q-61 0 -101 -46.5t-40 -115.5q0 -109 94 -272zM797 225l-301 459q-105 -67 -150 -137.5 t-45 -167.5q0 -126 69 -204.5t179 -78.5q140 0 248 129z" />
<glyph unicode="'" horiz-adv-x="698" d="M295 838l-29 528h166l-26 -528h-111z" />
<glyph unicode="(" horiz-adv-x="522" d="M356 -342q-154 213 -226.5 421t-72.5 433q0 224 72.5 431.5t226.5 422.5h121q-254 -396 -254 -854q0 -455 254 -854h-121z" />
<glyph unicode=")" horiz-adv-x="522" d="M45 -342q254 394 254 854q0 458 -254 854h121q154 -216 226.5 -422.5t72.5 -431.5q0 -226 -72.5 -433t-226.5 -421h-121z" />
<glyph unicode="*" d="M455 639l22 287l-239 -158l-60 123l246 110l-246 113l60 123l239 -158l-22 287h135l-21 -287l238 158l59 -123l-245 -113l245 -110l-59 -123l-238 158l21 -287h-135z" />
<glyph unicode="+" d="M457 264v357h-353v124h353v357h133v-357h352v-124h-352v-357h-133z" />
<glyph unicode="," horiz-adv-x="489" d="M170 0v221h186v-221l-133 -260h-90l121 260h-84z" />
<glyph unicode="-" horiz-adv-x="593" d="M72 446v123h450v-123h-450z" />
<glyph unicode="." horiz-adv-x="489" d="M152 0v221h186v-221h-186z" />
<glyph unicode="/" horiz-adv-x="907" d="M-14 -342l690 1708h127l-690 -1708h-127z" />
<glyph unicode="0" d="M252 82q-166 178 -166 602q0 422 166 600q105 111 274 111q73 0 145 -30t122 -81q165 -177 165 -602q0 -423 -165 -600q-49 -52 -121.5 -81.5t-149.5 -29.5t-149 29.5t-121 81.5zM522 96q132 0 201.5 150.5t69.5 437.5q0 283 -69.5 434.5t-199.5 151.5 q-133 0 -202.5 -149t-69.5 -435q0 -289 69 -439.5t201 -150.5z" />
<glyph unicode="1" d="M268 0v123h232v1032q-35 -51 -101 -105.5t-143 -97.5v164q76 41 155.5 112.5t141.5 153.5h113v-1259h219v-123h-617z" />
<glyph unicode="2" d="M76 0v137q373 325 517 508t144 334q0 125 -69 200.5t-183 75.5q-113 0 -177 -70.5t-87 -221.5l-145 32q23 109 52 169t85 116q115 115 289 115q182 0 290.5 -111t108.5 -297t-141.5 -373t-497.5 -473h639v-141h-825z" />
<glyph unicode="3" d="M219 1038l-129 39q22 78 45.5 123.5t63.5 85.5q112 109 297 109q178 0 282.5 -100.5t104.5 -270.5q0 -114 -49 -181t-172 -124q268 -68 268 -342q0 -183 -123 -294.5t-324 -111.5q-231 0 -352 146q-33 39 -51 79.5t-33 110.5l135 47q21 -67 39.5 -103.5t48.5 -68.5 q40 -40 96.5 -63t114.5 -23q122 0 195.5 78t73.5 207q0 143 -97 215q-68 51 -233 51h-88v123h88q97 0 139.5 10.5t79.5 42.5q76 70 76 191q0 117 -63 186.5t-169 69.5q-108 0 -176 -68q-30 -29 -48.5 -64t-39.5 -100z" />
<glyph unicode="4" d="M70 330v110l514 953h207v-940h184v-123h-184v-330h-156v330h-565zM221 453h414v813z" />
<glyph unicode="5" d="M315 1225l-20 -437q63 76 121 105t147 29q178 0 280.5 -122.5t102.5 -336.5q0 -226 -118.5 -359t-319.5 -133q-175 0 -289 105q-46 43 -73 90.5t-48 128.5l144 53q43 -132 103 -184.5t169 -52.5q130 0 200 90.5t70 259.5q0 158 -65 239.5t-191 81.5q-94 0 -156 -43 t-108 -141l-117 29l39 739h693l-15 -141h-549z" />
<glyph unicode="6" d="M965 1090l-146 -50q-37 118 -90 166.5t-145 48.5q-156 0 -231 -141.5t-87 -458.5q52 126 130 184t194 58q170 0 278.5 -127.5t108.5 -327.5q0 -210 -114.5 -340.5t-297.5 -130.5q-213 0 -331.5 176.5t-118.5 493.5q0 350 126.5 552t344.5 202q155 0 260 -97 q40 -39 66 -83.5t53 -124.5zM301 436q0 -140 77.5 -232.5t194.5 -92.5t180.5 82.5t63.5 236.5t-64.5 241t-179.5 87q-120 0 -196 -90.5t-76 -231.5z" />
<glyph unicode="7" d="M375 0q-2 18 -2 41q0 313 131 670q47 127 111 240.5t178 273.5h-627l14 141h770v-100q-113 -152 -188 -311t-137 -375q-82 -294 -82 -539v-41h-168z" />
<glyph unicode="8" d="M76 342q0 126 66 215t212 156q-122 69 -173.5 143t-51.5 180q0 160 113 259.5t295 99.5q174 0 281.5 -95.5t107.5 -250.5q0 -107 -58 -182t-186 -134q149 -67 219 -158t70 -217q0 -172 -126 -279.5t-327 -107.5q-204 0 -323 99.5t-119 271.5zM518 788q94 36 133 60 q127 75 127 203q0 97 -69.5 158t-178.5 61q-106 0 -171.5 -60t-65.5 -155q0 -96 54.5 -161t170.5 -106zM229 348q0 -112 81 -182t210 -70q127 0 206 66.5t79 173.5q0 106 -69.5 177t-227.5 126q-97 -36 -146 -68q-133 -84 -133 -223z" />
<glyph unicode="9" d="M92 244l139 63q38 -110 89.5 -153t142.5 -43q146 0 219 138.5t86 444.5q-28 -60 -48.5 -91.5t-49.5 -57.5q-88 -78 -213 -78q-166 0 -274.5 129.5t-108.5 327.5q0 209 117.5 340t306.5 131q183 0 288 -121q142 -157 142 -535q0 -372 -124.5 -570t-357.5 -198 q-132 0 -214 63t-140 210zM487 606q110 0 182 92.5t72 233.5q0 142 -69 232.5t-178 90.5q-121 0 -191 -88.5t-70 -242.5q0 -143 69.5 -230.5t184.5 -87.5z" />
<glyph unicode=":" horiz-adv-x="487" d="M152 788v222h186v-222h-186zM152 0v221h186v-221h-186z" />
<glyph unicode=";" horiz-adv-x="489" d="M170 788v222h186v-222h-186zM170 0v221h186v-221l-133 -260h-90l121 260h-84z" />
<glyph unicode="&#x3c;" d="M80 623v120l887 410v-135l-740 -336l740 -334v-137z" />
<glyph unicode="=" d="M104 752v125h838v-125h-838zM104 489v125h838v-125h-838z" />
<glyph unicode="&#x3e;" d="M80 211v137l739 334l-739 336v135l887 -412v-118z" />
<glyph unicode="?" horiz-adv-x="1011" d="M373 342v39q0 110 15 170t53 107t124 110q77 58 109.5 118t32.5 144q0 115 -59 177.5t-165 62.5q-118 0 -182 -77.5t-78 -236.5l-143 39q50 400 409 400q175 0 279 -100t104 -267q0 -114 -45.5 -192.5t-162.5 -171.5q-95 -73 -123 -119.5t-25 -132.5l2 -70h-145zM352 0 v209h187v-209h-187z" />
<glyph unicode="@" horiz-adv-x="1185" d="M1030 172l39 -90q-123 -62 -215.5 -86.5t-202.5 -24.5q-294 0 -468.5 188t-174.5 505q0 328 174.5 529.5t458.5 201.5q250 0 395.5 -166.5t145.5 -452.5q0 -221 -87.5 -358t-228.5 -137q-65 0 -99 27.5t-46 90.5q-35 -70 -75 -98.5t-103 -28.5q-109 0 -170.5 87.5 t-61.5 242.5q0 195 83.5 323t211.5 128q66 0 105.5 -33.5t64.5 -110.5l19 127h104l-59 -426q-15 -103 -15 -147q0 -35 13.5 -51.5t44.5 -16.5q82 0 133 101t51 264q0 290 -147 428q-116 110 -287 110q-143 0 -257 -81t-178.5 -225t-64.5 -324q0 -268 144.5 -433t379.5 -165 q101 0 186.5 23.5t186.5 78.5zM555 393q69 0 117.5 98.5t48.5 239.5q0 94 -29 147.5t-80 53.5q-72 0 -119 -91.5t-47 -232.5q0 -95 31 -155t78 -60z" />
<glyph unicode="A" horiz-adv-x="1011" d="M33 0l383 1366h196l363 -1366h-166l-100 391h-412l-98 -391h-166zM332 524h342l-170 680z" />
<glyph unicode="B" horiz-adv-x="1081" d="M143 0v1366h371q113 0 167.5 -9t104.5 -36q66 -37 106 -117t40 -176q0 -115 -50.5 -187.5t-158.5 -115.5q61 -18 94.5 -35t63.5 -47q98 -98 98 -262q0 -214 -162 -315q-58 -37 -123.5 -51.5t-169.5 -14.5h-381zM309 786h183q142 0 205 52.5t63 171.5q0 114 -59 166.5 t-187 52.5h-205v-443zM309 137h211q138 0 212.5 65t74.5 185q0 140 -96 211q-41 29 -88.5 40t-135.5 11h-178v-512z" />
<glyph unicode="C" d="M997 977l-159 -37q-17 89 -31.5 134t-36.5 77q-67 104 -195 104q-152 0 -230.5 -146t-78.5 -429q0 -291 92 -442q41 -66 94 -96.5t126 -30.5q111 0 167 68t93 249l151 -37q-43 -224 -141 -322t-281 -98q-233 0 -355 182t-122 529q0 341 125.5 527t357.5 186 q175 0 276.5 -100.5t147.5 -317.5z" />
<glyph unicode="D" horiz-adv-x="1150" d="M143 0v1366h295q290 0 457.5 -180.5t167.5 -493.5q0 -204 -80 -367t-221 -245q-135 -80 -324 -80h-295zM309 137h129q212 0 330.5 143t118.5 400q0 258 -119 403.5t-330 145.5h-129v-1092z" />
<glyph unicode="E" horiz-adv-x="942" d="M143 0v1366h742v-137h-576v-453h455v-137h-455v-502h592v-137h-758z" />
<glyph unicode="F" horiz-adv-x="837" d="M143 0v1366h717v-137h-551v-453h453v-137h-453v-639h-166z" />
<glyph unicode="G" horiz-adv-x="1150" d="M913 -18l-22 188q-55 -104 -134 -151.5t-196 -47.5q-164 0 -276 103q-94 88 -144.5 244t-50.5 358q0 349 129.5 534t372.5 185q173 0 271.5 -87t152.5 -288l-150 -57q-25 83 -42 123t-40 73q-69 96 -198 96q-320 0 -320 -573q0 -280 81.5 -425.5t238.5 -145.5 q133 0 206.5 100.5t73.5 282.5v45h-280v137h440v-694h-113z" />
<glyph unicode="H" horiz-adv-x="1116" d="M143 0v1366h166v-580h496v580h166v-1366h-166v649h-496v-649h-166z" />
<glyph unicode="I" horiz-adv-x="454" d="M143 0v1366h166v-1366h-166z" />
<glyph unicode="J" horiz-adv-x="628" d="M-37 0v135q71 -24 141 -24q130 0 172 77q26 45 33.5 114t7.5 261v803h166v-803q0 -159 -4.5 -235t-19.5 -127q-63 -230 -324 -230q-66 0 -172 29z" />
<glyph unicode="K" horiz-adv-x="1011" d="M143 0v1366h166v-719l477 719h187l-359 -500l445 -866h-191l-358 717l-201 -281v-436h-166z" />
<glyph unicode="L" horiz-adv-x="802" d="M143 0v1366h166v-1229h518v-137h-684z" />
<glyph unicode="M" horiz-adv-x="1396" d="M135 0v1366h240l321 -1100l322 1100h233v-1366h-155v1184l-353 -1184h-120l-344 1186v-1186h-144z" />
<glyph unicode="N" horiz-adv-x="1150" d="M137 0v1366h211l522 -1079v1079h144v-1366h-164l-569 1163v-1163h-144z" />
<glyph unicode="O" horiz-adv-x="1150" d="M262 94q-83 89 -127.5 240.5t-44.5 343.5q0 199 44.5 352t127.5 242q117 123 324 123q230 0 353.5 -184.5t123.5 -528.5q0 -345 -124 -528t-359 -183q-94 0 -178.5 32.5t-139.5 90.5zM346 244q41 -71 95.5 -103t133.5 -32q88 0 147.5 38.5t98.5 124.5q70 146 70 412 q0 283 -78.5 428t-232.5 145q-90 0 -149 -38.5t-99 -124.5q-70 -146 -70 -410q0 -293 84 -440z" />
<glyph unicode="P" horiz-adv-x="976" d="M143 0v1366h293q234 0 340 -76q74 -53 116 -141.5t42 -192.5q0 -115 -47 -204.5t-133 -139.5q-60 -34 -125.5 -45.5t-192.5 -11.5h-127v-555h-166zM309 692h127q98 0 151.5 10.5t88.5 36.5q86 61 86 217q0 163 -100 234q-44 33 -115 39h-111h-127v-537z" />
<glyph unicode="Q" horiz-adv-x="1150" d="M543 -47v20q-122 11 -217 70q-112 72 -174 240.5t-62 400.5q0 195 44.5 347t127.5 241q55 58 139 90.5t179 32.5q235 0 359 -182.5t124 -528.5q0 -394 -166 -584q-37 -41 -81.5 -66.5t-115.5 -45.5q0 -108 34.5 -147.5t129.5 -39.5q46 0 105 21v-135q-69 -29 -140 -29 q-139 0 -212.5 76t-73.5 219zM575 109q88 0 146 38.5t98 124.5q70 146 70 412q0 282 -78 427.5t-229 145.5q-91 0 -150.5 -38.5t-99.5 -124.5q-68 -142 -68 -410q0 -575 311 -575z" />
<glyph unicode="R" d="M143 0v1366h398q89 0 164.5 -22t121.5 -62q57 -50 88 -125t31 -164q0 -127 -54.5 -214t-168.5 -144l256 -635h-178l-230 596h-262v-596h-166zM309 733h207q128 0 196 68.5t68 195.5q0 111 -65.5 171.5t-186.5 60.5h-219v-496z" />
<glyph unicode="S" d="M928 1053l-148 -43q-44 136 -105 190.5t-169 54.5q-101 0 -164 -59t-63 -154q0 -80 51 -131q33 -33 81 -58t171 -71q193 -74 274 -147q52 -47 82.5 -118t30.5 -146q0 -175 -122.5 -287.5t-314.5 -112.5q-99 0 -188 31t-147 86q-54 50 -84 110t-52 162l152 41 q19 -76 38.5 -118.5t53.5 -79.5q83 -92 232 -92q117 0 188.5 64.5t71.5 168.5q0 94 -59 152.5t-210 117.5q-147 57 -195.5 82t-94.5 66q-55 49 -88 123t-33 149q0 157 113 259t290 102q182 0 293 -117q41 -43 65.5 -91t49.5 -134z" />
<glyph unicode="T" horiz-adv-x="733" d="M283 0v1227h-326v139h819v-139h-327v-1227h-166z" />
<glyph unicode="U" horiz-adv-x="1116" d="M973 1366v-885q0 -149 -16.5 -230t-57.5 -138q-103 -142 -344 -142q-237 0 -340 142q-38 54 -55 136t-17 214v903h166v-903q0 -126 10.5 -182.5t40.5 -92.5q62 -77 201 -77q85 0 137.5 25.5t83.5 82.5q20 38 27.5 91.5t7.5 160.5v895h156z" />
<glyph unicode="V" horiz-adv-x="942" d="M387 0l-373 1366h170l299 -1128l295 1128h158l-381 -1366h-168z" />
<glyph unicode="W" horiz-adv-x="1431" d="M330 0l-293 1366h162l219 -1085l241 1085h132l247 -1085l217 1085h144l-283 -1366h-155l-242 1044l-234 -1044h-155z" />
<glyph unicode="X" horiz-adv-x="872" d="M-14 0l356 713l-311 653h184l223 -502l256 502h150l-314 -623l357 -743h-193l-260 586l-293 -586h-155z" />
<glyph unicode="Y" horiz-adv-x="802" d="M319 0v578l-378 788h176l299 -629l295 629h151l-377 -788v-578h-166z" />
<glyph unicode="Z" horiz-adv-x="837" d="M12 0v145l619 1084h-586v137h772v-113l-633 -1108h647v-145h-819z" />
<glyph unicode="[" horiz-adv-x="522" d="M266 -238h150v-104h-299v1708h299v-104h-150v-1500z" />
<glyph unicode="\" horiz-adv-x="907" d="M795 -342l-691 1708h127l691 -1708h-127z" />
<glyph unicode="]" horiz-adv-x="522" d="M106 -238h150v1500h-150v104h300v-1708h-300v104z" />
<glyph unicode="^" d="M68 754l366 614h178l367 -614h-150l-307 508l-305 -508h-149z" />
<glyph unicode="_" horiz-adv-x="1024" d="M0 -137h1024v-127h-1024v127z" />
<glyph unicode="`" horiz-adv-x="1024" d="M541 1151l-340 215l104 111l305 -254z" />
<glyph unicode="a" horiz-adv-x="942" d="M825 0h-143q-9 74 -12 180q-57 -114 -122.5 -161.5t-166.5 -47.5q-135 0 -217 83.5t-82 221.5q0 132 76 224q111 129 368 129q57 0 133 -8v43q0 129 -46 189t-144 60q-157 0 -199 -159l-147 24q12 60 33 98t59 70q106 92 266 92q90 0 161.5 -30.5t111.5 -85.5 q32 -44 42.5 -105t10.5 -196v-297q0 -159 3 -212t15 -112zM662 428l-3 72q-62 14 -116 14q-153 0 -228 -60.5t-75 -183.5q0 -84 44 -129t126 -45q114 0 185 92t67 240z" />
<glyph unicode="b" horiz-adv-x="976" d="M135 0v1366h150v-489q54 82 113.5 117.5t144.5 35.5q166 0 259 -136t93 -380q0 -258 -99.5 -396t-285.5 -138q-100 0 -155 34.5t-101 126.5q-15 -47 -41 -141h-78zM285 432q0 -328 225 -328q114 0 166.5 99t52.5 313q0 208 -50 298.5t-165 90.5q-114 0 -180 -117 q-28 -47 -38.5 -91t-10.5 -111v-154z" />
<glyph unicode="c" horiz-adv-x="837" d="M643 342l152 -18q-15 -98 -33.5 -150.5t-52.5 -95.5q-38 -51 -106.5 -79t-153.5 -28q-179 0 -272 134.5t-93 392.5q0 266 95.5 403t281.5 137q156 0 235 -94q37 -45 58 -97t41 -151l-152 -30q-20 126 -45 174q-43 73 -141 73q-112 0 -159.5 -101t-47.5 -341 q0 -193 51 -284t160 -91q107 0 151 101q21 48 31 145z" />
<glyph unicode="d" horiz-adv-x="976" d="M707 0v141q-47 -84 -112 -122.5t-159 -38.5q-169 0 -261.5 134t-92.5 380q0 248 96 392t262 144q90 0 150.5 -37.5t101.5 -120.5v494h150v-1366h-135zM692 432v168q0 84 -13.5 131t-51.5 94q-62 80 -162 80q-219 0 -219 -391q0 -410 227 -410q106 0 172 89q26 37 36.5 89 t10.5 150z" />
<glyph unicode="e" horiz-adv-x="907" d="M682 301l139 -33q-76 -297 -352 -297q-184 0 -284.5 136.5t-100.5 384.5q0 252 105.5 399t285.5 147q82 0 150 -34t114 -97q65 -87 88 -260q9 -78 11 -160h-596v-20q0 -371 235 -371q78 0 124.5 46.5t80.5 158.5zM250 610h418q0 146 -54 224.5t-153 78.5 q-187 0 -211 -303z" />
<glyph unicode="f" horiz-adv-x="487" d="M162 0v887h-146v123h146q2 125 10 180t31 96q34 59 86.5 84t142.5 25q50 0 115 -15v-123q-44 13 -76 13q-66 0 -100.5 -21.5t-46.5 -72.5q-13 -54 -13 -166h187v-123h-187v-887h-149z" />
<glyph unicode="g" horiz-adv-x="872" d="M862 1167v-129q-20 4 -41 4q-47 0 -72 -30t-34 -97q78 -106 78 -227q0 -149 -96.5 -246.5t-245.5 -97.5q-52 0 -123 18q-48 -17 -66 -37.5t-18 -58.5q0 -56 45 -76q24 -12 54 -15t167 -9q115 -6 175.5 -16.5t100.5 -30.5q109 -56 109 -211q0 -141 -112 -218t-316 -77 q-195 0 -299.5 68.5t-104.5 197.5q0 77 33 126t103 75q-53 35 -74 70t-21 86q0 129 129 186q-63 63 -88.5 123t-25.5 145q0 146 98 247t240 101q85 0 166 -45q19 98 66.5 136t148.5 38h24zM455 461q81 0 132.5 63t51.5 162q0 103 -50.5 165t-133.5 62t-132 -61.5t-49 -167.5 q0 -101 49.5 -162t131.5 -61zM373 41h-70q-86 -51 -86 -135q0 -89 62.5 -130.5t197.5 -41.5q129 0 196.5 42t67.5 124q0 101 -98 125q-29 7 -41 9t-68 4.5t-161 2.5z" />
<glyph unicode="h" horiz-adv-x="942" d="M135 0v1366h150v-512q35 95 96.5 139.5t155.5 44.5q83 0 145.5 -36.5t93.5 -102.5q19 -38 25 -93.5t6 -178.5v-627h-150v627q0 97 -5.5 140.5t-22.5 72.5q-39 73 -133 73q-101 0 -156 -100t-55 -287v-526h-150z" />
<glyph unicode="i" horiz-adv-x="417" d="M127 1190v174h162v-174h-162zM133 0v1010h150v-1010h-150z" />
<glyph unicode="j" horiz-adv-x="417" d="M129 1190v174h162v-174h-162zM133 39v971h150v-971q0 -140 -8 -197.5t-33 -97.5q-63 -102 -211 -102q-47 0 -115 16v125q57 -16 100 -16q47 0 73 17.5t36 57.5q8 33 8 197z" />
<glyph unicode="k" horiz-adv-x="837" d="M135 0v1366h150v-858l360 502h166l-266 -357l299 -653h-162l-236 537l-161 -220v-317h-150z" />
<glyph unicode="l" horiz-adv-x="417" d="M135 0v1366h150v-1366h-150z" />
<glyph unicode="m" horiz-adv-x="1429" d="M135 0v1010h139v-154q51 105 103.5 143.5t144.5 38.5q103 0 160 -48.5t82 -155.5q43 107 106 155.5t160 48.5q76 0 136 -31.5t91 -88.5q22 -41 30.5 -105.5t8.5 -189.5v-623h-149v614q0 95 -4.5 140t-18.5 77q-39 82 -131 82q-97 0 -149.5 -82.5t-52.5 -234.5v-596h-150 v596q0 122 -2 152.5t-10 60.5q-30 104 -146 104q-119 0 -172 -125q-17 -39 -21.5 -75.5t-4.5 -126.5v-586h-150z" />
<glyph unicode="n" horiz-adv-x="942" d="M135 0v1010h139v-158q46 101 105.5 143.5t155.5 42.5q89 0 154 -39t93 -110q25 -65 25 -246v-643h-150v623q0 103 -5.5 146t-20.5 75q-37 69 -131 69q-117 0 -174 -114q-23 -45 -32 -102t-9 -152v-545h-150z" />
<glyph unicode="o" horiz-adv-x="942" d="M469 -29q-184 0 -284.5 138.5t-100.5 392.5q0 261 100 398.5t289 137.5q144 0 242 -88q143 -134 143 -446q0 -258 -100 -395.5t-289 -137.5zM471 96q109 0 165 104.5t56 305.5q0 198 -56.5 302.5t-162.5 104.5q-109 0 -166 -103.5t-57 -303.5q0 -201 56 -305.5 t165 -104.5z" />
<glyph unicode="p" horiz-adv-x="976" d="M285 131v-473h-150v1352h135v-179q46 104 110 151.5t161 47.5q161 0 257.5 -139.5t96.5 -372.5q0 -153 -40.5 -273t-115.5 -194q-74 -71 -198 -71q-91 0 -146.5 32.5t-109.5 118.5zM285 580v-152q0 -104 11.5 -149.5t49.5 -92.5q67 -82 160 -82q109 0 166 104.5t57 301.5 q0 187 -58.5 291t-164.5 104q-115 0 -178 -121q-26 -47 -34.5 -87.5t-8.5 -116.5z" />
<glyph unicode="q" horiz-adv-x="976" d="M692 -342v492q-54 -92 -114 -131t-148 -39q-161 0 -254.5 136t-93.5 371q0 320 160 465q89 80 211 80q91 0 149.5 -43.5t104.5 -144.5q35 89 55 180h80v-1366h-150zM692 465v117q0 141 -62 232t-159 91q-107 0 -165 -104.5t-58 -300.5q0 -187 58 -291.5t161 -104.5 t172 111q29 46 41 102.5t12 147.5z" />
<glyph unicode="r" horiz-adv-x="524" d="M135 0v1010h133v-211q32 83 65.5 129t86.5 78q50 32 106 32q6 0 33 -2v-168q-18 2 -39 2q-108 0 -172 -92q-34 -47 -48.5 -106t-14.5 -150v-522h-150z" />
<glyph unicode="s" horiz-adv-x="802" d="M721 780l-131 -32q-29 86 -77 125.5t-120 39.5q-75 0 -124.5 -44t-49.5 -111q0 -32 15.5 -62t41.5 -47q23 -15 45 -23t134 -42q169 -53 239 -121t70 -180q0 -137 -103 -224.5t-264 -87.5q-173 0 -268 92q-38 36 -58.5 79.5t-35.5 117.5l139 31q20 -100 77 -147.5 t155 -47.5q89 0 145.5 47t56.5 119q0 64 -42 101.5t-154 70.5q-117 37 -168.5 59.5t-85.5 51.5q-39 34 -62.5 85.5t-23.5 104.5q0 128 95 215.5t234 87.5q126 0 204 -62.5t116 -195.5z" />
<glyph unicode="t" horiz-adv-x="522" d="M549 113v-125q-86 -17 -139 -17q-175 0 -228 115q-17 38 -23.5 101t-6.5 192v508h-146v123h146v235l149 15v-250h199v-123h-199v-508q0 -117 6 -163t25 -69q36 -45 127 -45q34 0 90 11z" />
<glyph unicode="u" horiz-adv-x="942" d="M668 0v152q-51 -99 -110 -140t-152 -41q-88 0 -150.5 37.5t-91.5 108.5q-29 76 -29 256v637h150v-637q0 -148 14 -191q30 -86 139 -86q113 0 174 119q26 54 35.5 122t9.5 212v461h150v-1010h-139z" />
<glyph unicode="v" horiz-adv-x="768" d="M307 0l-293 1010h152l229 -830l221 830h138l-293 -1010h-154z" />
<glyph unicode="w" horiz-adv-x="1150" d="M276 0l-251 1010h149l174 -758l172 758h109l186 -766l180 766h125l-248 -1010h-127l-174 711l-159 -711h-136z" />
<glyph unicode="x" horiz-adv-x="698" d="M-27 0l287 530l-260 480h170l180 -342l174 342h152l-250 -465l297 -545h-174l-211 401l-207 -401h-158z" />
<glyph unicode="y" horiz-adv-x="768" d="M51 -231q50 -9 70 -9q30 0 49 3t37.5 15.5t30.5 29t27 52t27.5 76.5t31.5 109l-285 965h149l207 -756l226 756h141l-348 -1112q-46 -149 -103 -206t-161 -57q-37 0 -99 11v123z" />
<glyph unicode="z" horiz-adv-x="663" d="M16 0v123l447 764h-410v123h600v-82l-465 -805h465v-123h-637z" />
<glyph unicode="{" horiz-adv-x="522" d="M150 -18v233q0 121 -5.5 156.5t-27.5 58.5q-27 31 -76 31h-8v123h10q55 0 82 41q17 23 21 56t4 148v211q0 115 6.5 161t27.5 79q54 88 191 88q35 0 55 -2v-106q-37 0 -58.5 -5t-37 -17t-22.5 -39t-10 -62.5t-3 -96.5v-211q0 -121 -9.5 -176.5t-35 -83.5t-84.5 -47 q59 -19 84.5 -46.5t35 -83t9.5 -177.5v-233q0 -61 3 -96.5t10 -62.5t22.5 -39t37 -17t58.5 -5v-106q-20 -2 -55 -2q-72 0 -124 25.5t-75 72.5q-17 33 -21.5 77t-4.5 153z" />
<glyph unicode="|" horiz-adv-x="1024" d="M444 -342v1708h138v-1708h-138z" />
<glyph unicode="}" horiz-adv-x="522" d="M225 -18v233q0 121 9.5 176.5t35 83.5t84.5 47q-59 19 -84.5 47t-35 83.5t-9.5 176.5v211q0 76 -4 115.5t-19 65t-39.5 32.5t-70.5 7v106q20 2 55 2q151 0 201 -100q15 -31 21 -79t6 -149v-211q0 -124 4.5 -157t26.5 -58q30 -30 75 -30h8v-123h-10q-53 0 -80 -41 q-17 -23 -20.5 -54.5t-3.5 -150.5v-233q0 -112 -6.5 -160t-26.5 -80q-57 -88 -195 -88q-35 0 -55 2v106q37 0 59 5t38 16.5t23 38.5t10 62.5t3 97.5z" />
<glyph unicode="~" d="M154 543l-74 53q58 127 114 178t136 51q70 0 209 -71q80 -42 113.5 -55t66.5 -13q52 0 89.5 31.5t80.5 111.5l76 -49q-52 -117 -115 -171t-145 -54q-41 0 -90 18t-169 80q-80 41 -124 41q-51 0 -88.5 -34.5t-79.5 -116.5z" />
<glyph unicode="&#xa1;" horiz-adv-x="698" d="M256 801v209h186v-209h-186zM244 -356l55 1030h98l56 -1030h-209z" />
<glyph unicode="&#xa2;" d="M487 -14v235q-90 16 -145 60q-75 59 -116.5 165.5t-41.5 245.5q0 133 41 242.5t113 171.5q54 46 149 65v195h103v-195q222 -27 272 -311l-125 -31q-34 191 -147 224v-709q65 20 98.5 70.5t48.5 148.5l125 -26q-13 -134 -83 -215t-189 -101v-235h-103zM487 342v709 q-79 -25 -113 -106.5t-34 -246.5t32 -243t115 -113z" />
<glyph unicode="&#xa3;" d="M59 0v137h43q139 0 224.5 86t85.5 226q0 75 -21 198h-231v123h211q-31 179 -31 256q0 170 96 269.5t262 99.5q103 0 177 -45t133 -142l-115 -96q-41 80 -87.5 114t-113.5 34q-91 0 -141.5 -65.5t-50.5 -182.5q0 -72 37 -242h284v-123h-268q12 -86 12 -141 q0 -132 -41 -217.5t-139 -155.5h154q133 0 200 13t108.5 46t84.5 107l112 -88q-34 -63 -69 -101t-82 -63q-56 -29 -122.5 -38t-231.5 -9h-480z" />
<glyph unicode="&#xa4;" d="M195 287l-84 84l151 149q-57 88 -57 182q0 97 55 183l-151 151l84 84l151 -151q87 53 180 53q97 0 183 -55l151 151l84 -84l-154 -153q56 -85 56 -179q0 -93 -56 -178l152 -151l-86 -84l-149 151q-85 -57 -181 -57q-92 0 -178 55zM520 512q82 0 138.5 55t56.5 133 q0 80 -56 136.5t-135 56.5q-78 0 -134 -56.5t-56 -134.5q0 -77 55.5 -133.5t130.5 -56.5z" />
<glyph unicode="&#xa5;" d="M446 0v444h-335v107h333l-73 154h-260v106h213l-263 555h181l293 -659l290 659h158l-270 -555h243v-106h-292l-68 -154h360v-107h-360v-444h-150z" />
<glyph unicode="&#xa6;" horiz-adv-x="1024" d="M444 686v680h138v-680h-138zM444 313h138v-655h-138v655z" />
<glyph unicode="&#xa7;" d="M129 -53l145 28q26 -108 86 -158t164 -50q110 0 175 55.5t65 150.5q0 51 -22 94.5t-62 69.5q-31 20 -57.5 31t-153.5 55q-167 57 -234 124.5t-67 178.5q0 88 39 156.5t131 138.5q-69 54 -101 118.5t-32 150.5q0 134 92.5 219.5t237.5 85.5q79 0 151.5 -26.5t116.5 -70.5 q32 -32 51.5 -71t36.5 -107l-143 -22q-29 97 -80.5 139.5t-137.5 42.5q-82 0 -130 -49.5t-48 -132.5q0 -43 18.5 -83t49.5 -63q45 -37 188 -90q91 -32 129 -50.5t76 -49.5q90 -75 90 -201q0 -84 -33.5 -147t-117.5 -135q91 -60 128.5 -124.5t37.5 -158.5 q0 -157 -112.5 -255.5t-289.5 -98.5q-160 0 -259 78t-128 227zM489 752l-61 22q-67 -58 -93 -103t-26 -104q0 -62 29.5 -101t99.5 -71q56 -25 209 -76q66 59 91.5 102.5t25.5 98.5q0 99 -92 154q-29 17 -51 26.5t-132 51.5z" />
<glyph unicode="&#xa8;" horiz-adv-x="1024" d="M659 1176q-41 0 -70.5 29.5t-29.5 70.5q0 43 30 72.5t73 29.5q41 0 70.5 -29.5t29.5 -72.5q0 -41 -30 -70.5t-73 -29.5zM356 1176q-41 0 -70.5 29.5t-29.5 70.5q0 43 29.5 72.5t72.5 29.5q42 0 71.5 -30t29.5 -72q0 -41 -30 -70.5t-73 -29.5z" />
<glyph unicode="&#xa9;" horiz-adv-x="1605" d="M88 682q0 144 56.5 275.5t152 227t227.5 152t277 56.5q195 0 359.5 -95.5t260 -260t95.5 -359.5q0 -144 -57 -274.5t-154 -225t-231.5 -150t-282.5 -55.5q-140 0 -270 57t-225 152.5t-151.5 226.5t-56.5 273zM203 682q0 -121 47.5 -232t126.5 -192t188.5 -129.5 t227.5 -48.5q166 0 306 79.5t221 217.5t81 301q0 166 -79.5 306t-217.5 221t-301 81q-122 0 -233.5 -48t-191.5 -128.5t-127.5 -192.5t-47.5 -235zM971 547l116 -27q-28 -143 -91.5 -203.5t-186.5 -60.5q-152 0 -232.5 109t-80.5 315q0 204 82.5 316t234.5 112 q117 0 184.5 -63t96.5 -199l-123 -27q-18 87 -45 129q-40 58 -111 58q-91 0 -137.5 -83t-46.5 -243q0 -155 47.5 -238.5t136.5 -83.5q67 0 99 39t57 150z" />
<glyph unicode="&#xaa;" horiz-adv-x="593" d="M532 547h-108q-5 25 -10 86q-38 -57 -77 -80t-97 -23q-88 0 -142.5 52t-54.5 137q0 104 75.5 160.5t213.5 56.5q40 0 69 -4v12v8q0 60 -27 93.5t-79 33.5q-47 0 -74 -22.5t-39 -71.5l-116 16q43 175 237 175q122 0 178 -72q22 -30 29.5 -66.5t7.5 -117.5v-172 q0 -94 2.5 -127t11.5 -74zM401 821v19q-41 6 -61 6q-170 0 -170 -127q0 -43 23.5 -67.5t64.5 -24.5q66 0 104.5 52t38.5 142z" />
<glyph unicode="&#xab;" horiz-adv-x="733" d="M549 223l-178 303l178 303h92l-94 -303l94 -303h-92zM270 238l-178 288l178 289h92l-94 -289l94 -288h-92z" />
<glyph unicode="&#xac;" d="M80 420v127h887v-547h-138v420h-749z" />
<glyph unicode="&#xad;" horiz-adv-x="593" d="M72 446v123h450v-123h-450z" />
<glyph unicode="&#xae;" horiz-adv-x="1605" d="M88 682q0 144 56.5 275.5t152 227t227.5 152t277 56.5q195 0 359.5 -95.5t260 -260t95.5 -359.5q0 -144 -57 -274.5t-154 -225t-231.5 -150t-282.5 -55.5q-140 0 -270 57t-225 152.5t-151.5 226.5t-56.5 273zM203 682q0 -121 47.5 -232t126.5 -192t188.5 -129.5 t227.5 -48.5q166 0 306 79.5t221 217.5t81 301q0 166 -79.5 306t-217.5 221t-301 81q-122 0 -233.5 -48t-191.5 -128.5t-127.5 -192.5t-47.5 -235zM551 272v820h262q127 0 197.5 -60.5t70.5 -169.5q0 -148 -137 -213l162 -377h-137l-144 349h-145v-349h-129zM680 723h119 q74 0 113.5 37t39.5 106q0 60 -37 91.5t-108 31.5h-127v-266z" />
<glyph unicode="&#xaf;" horiz-adv-x="1024" d="M240 1214v119h546v-119h-546z" />
<glyph unicode="&#xb0;" d="M524 766q-130 0 -222.5 92t-92.5 221q0 132 92.5 224t224.5 92q127 0 219.5 -93.5t92.5 -222.5t-92.5 -221t-221.5 -92zM524 881q72 0 123 58t51 140q0 83 -50.5 142t-121.5 59q-75 0 -126.5 -58t-51.5 -143q0 -82 51.5 -140t124.5 -58z" />
<glyph unicode="&#xb1;" d="M457 264v357h-353v124h353v357h133v-357h352v-124h-352v-357h-133zM104 39v125h838v-125h-838z" />
<glyph unicode="&#xb2;" horiz-adv-x="698" d="M59 547v96q227 187 316.5 294t89.5 191q0 68 -38 109t-101 41q-68 0 -104 -40.5t-48 -131.5l-117 22q15 72 34 111.5t56 73.5q75 69 189 69q118 0 189 -67t71 -180q0 -82 -38.5 -151.5t-133.5 -160.5q-104 -100 -199 -168h371v-108h-537z" />
<glyph unicode="&#xb3;" horiz-adv-x="698" d="M170 1149l-107 31q31 104 95.5 153t171.5 49q115 0 183.5 -62t68.5 -165q0 -119 -121 -174q149 -47 149 -203q0 -109 -79.5 -177.5t-208.5 -68.5q-236 0 -285 213l110 35q23 -78 65.5 -114.5t109.5 -36.5t108 42t41 111q0 75 -44.5 109.5t-141.5 34.5h-68v94h68 q58 0 80.5 5t42.5 24q43 37 43 102q0 62 -34.5 98.5t-92.5 36.5q-61 0 -96.5 -31.5t-57.5 -105.5z" />
<glyph unicode="&#xb4;" horiz-adv-x="1024" d="M483 1151l-69 72l305 254l104 -111z" />
<glyph unicode="&#xb5;" d="M334 90v-432h-150v1352h150v-568q0 -158 33 -233q22 -53 63 -83t92 -30q189 0 189 361v553h149v-1010h-137v135q-27 -64 -45 -86q-59 -78 -158 -78q-60 0 -101.5 26.5t-84.5 92.5z" />
<glyph unicode="&#xb6;" d="M549 -342v950h-80q-118 0 -178.5 15t-112.5 57q-60 47 -92.5 127.5t-32.5 177.5q0 105 41.5 193.5t112.5 134.5q85 53 262 53h422v-1708h-119v1591h-104v-1591h-119z" />
<glyph unicode="&#xb7;" horiz-adv-x="487" d="M152 416v221h186v-221h-186z" />
<glyph unicode="&#xb8;" horiz-adv-x="1024" d="M438 -160l54 160h83l-28 -90q67 0 110 -14q41 -14 67 -48t26 -75q0 -69 -58.5 -116.5t-144.5 -47.5q-85 0 -178 55l22 66q85 -27 141 -27q43 0 67 16.5t24 47.5q0 44 -52 63q-9 3 -16.5 3.5t-32.5 1.5t-57 3z" />
<glyph unicode="&#xb9;" horiz-adv-x="698" d="M180 547v94h144v559q-43 -40 -70.5 -59t-81.5 -47v123q52 26 94.5 61.5t95.5 95.5h89v-733h137v-94h-408z" />
<glyph unicode="&#xba;" horiz-adv-x="593" d="M295 530q-120 0 -186 84t-66 236q0 157 66 240.5t190 83.5q121 0 186.5 -84t65.5 -238q0 -155 -66.5 -238.5t-189.5 -83.5zM297 627q60 0 91.5 57.5t31.5 167.5t-31 167.5t-90 57.5q-125 0 -125 -223q0 -227 123 -227z" />
<glyph unicode="&#xbb;" horiz-adv-x="733" d="M371 223l94 303l-94 303h92l178 -303l-178 -303h-92zM92 223l94 303l-94 303h92l178 -303l-178 -303h-92z" />
<glyph unicode="&#xbc;" horiz-adv-x="1568" d="M197 547v94h143v559q-43 -40 -70.5 -59t-81.5 -47v123q52 26 95 61.5t96 95.5h88v-733h137v-94h-407zM383 0l684 1366h119l-684 -1366h-119zM860 193v77l328 566h147v-549h113v-94h-113v-193h-121v193h-354zM985 287h229v432z" />
<glyph unicode="&#xbd;" horiz-adv-x="1568" d="M150 547v94h143v559q-43 -40 -70.5 -59t-81.5 -47v123q52 26 95 61.5t96 95.5h88v-733h137v-94h-407zM336 0l684 1366h119l-684 -1366h-119zM866 0v96q227 188 316.5 294.5t89.5 191.5q0 68 -39 108.5t-103 40.5q-66 0 -101 -40t-50 -132l-115 25q15 71 34 109.5t56 72.5 q76 70 189 70q117 0 187.5 -68t70.5 -180q0 -109 -84 -218t-285 -261h369v-109h-535z" />
<glyph unicode="&#xbe;" horiz-adv-x="1568" d="M223 1149l-106 31q31 104 95 153t171 49q115 0 183.5 -62t68.5 -165q0 -119 -121 -174q150 -47 150 -203q0 -109 -80 -177.5t-209 -68.5q-236 0 -285 213l111 35q23 -78 65 -114.5t109 -36.5t108 42t41 111q0 75 -44.5 109.5t-141.5 34.5h-68v94h68q58 0 80.5 5t42.5 24 q43 37 43 102q0 62 -34.5 98.5t-92.5 36.5q-61 0 -96.5 -31.5t-57.5 -105.5zM418 0l684 1366h119l-682 -1366h-121zM872 193v77l328 566h148v-549h112v-94h-112v-193h-121v193h-355zM997 287h230v432z" />
<glyph unicode="&#xbf;" horiz-adv-x="1011" d="M473 801v209h186v-209h-186zM788 53l144 -37q-52 -399 -410 -399q-175 0 -279 99.5t-104 265.5q0 114 46 193.5t163 170.5q92 72 119 118t27 132q0 45 -2 72h147v-39q0 -158 -34.5 -227t-158.5 -160q-76 -57 -108.5 -117.5t-32.5 -142.5q0 -115 58.5 -177.5t164.5 -62.5 q233 0 260 311z" />
<glyph unicode="&#xc0;" horiz-adv-x="1011" d="M584 1501l-396 123l74 139l371 -170zM33 0l383 1366h196l363 -1366h-166l-100 391h-412l-98 -391h-166zM332 524h342l-170 680z" />
<glyph unicode="&#xc1;" horiz-adv-x="1011" d="M440 1501l-49 92l371 170l74 -139zM33 0l383 1366h196l363 -1366h-166l-100 391h-412l-98 -391h-166zM332 524h342l-170 680z" />
<glyph unicode="&#xc2;" horiz-adv-x="1011" d="M338 1487l-150 26l332 228l332 -228l-150 -26l-182 106zM33 0l383 1366h196l363 -1366h-166l-100 391h-412l-98 -391h-166zM332 524h342l-170 680z" />
<glyph unicode="&#xc3;" horiz-adv-x="1011" d="M305 1509l-88 52q78 153 203 153q57 0 135 -41q69 -35 107 -35q29 0 49 14.5t45 53.5l88 -49q-47 -80 -93.5 -114t-109.5 -34q-55 0 -137 43q-65 33 -98 33q-57 0 -101 -76zM33 0l383 1366h196l363 -1366h-166l-100 391h-412l-98 -391h-166zM332 524h342l-170 680z" />
<glyph unicode="&#xc4;" horiz-adv-x="1011" d="M672 1509q-42 0 -73.5 31.5t-31.5 73.5q0 44 31 75t74 31q44 0 75 -31t31 -75q0 -43 -31.5 -74t-74.5 -31zM360 1509q-41 0 -72.5 32t-31.5 73q0 44 30.5 75t73.5 31q44 0 75.5 -31t31.5 -75q0 -43 -31.5 -74t-75.5 -31zM33 0l383 1366h196l363 -1366h-166l-100 391h-412 l-98 -391h-166zM332 524h342l-170 680z" />
<glyph unicode="&#xc5;" horiz-adv-x="1011" d="M522 1450q-78 0 -134 55.5t-56 132.5q0 79 56 135t136 56q75 0 131 -56.5t56 -134.5q0 -76 -56 -132t-133 -56zM522 1544q38 0 66 28t28 66q0 40 -28 68.5t-66 28.5q-40 0 -68 -28.5t-28 -68.5q0 -38 28 -66t68 -28zM33 0l383 1366h196l363 -1366h-166l-100 391h-412 l-98 -391h-166zM332 524h342l-170 680z" />
<glyph unicode="&#xc6;" horiz-adv-x="1501" d="M-63 0l690 1366h827v-137h-584v-453h459v-137h-459v-502h590v-137h-755v422h-402l-205 -422h-161zM369 559h336v690z" />
<glyph unicode="&#xc7;" d="M446 -176l50 151q-109 16 -187 74q-106 78 -162.5 242.5t-56.5 390.5q0 341 125.5 527t357.5 186q175 0 276.5 -100.5t147.5 -317.5l-159 -37q-17 89 -31.5 134t-36.5 77q-67 104 -195 104q-152 0 -230.5 -146t-78.5 -429q0 -291 92 -442q41 -66 94 -96.5t126 -30.5 q111 0 167 68t93 249l151 -37q-38 -217 -133.5 -315.5t-273.5 -104.5l-23 -73q10 2 25 2q83 0 133.5 -39.5t50.5 -104.5q0 -71 -60 -119.5t-149 -48.5q-88 0 -184 58l24 65q86 -26 144 -26q94 0 94 67q0 47 -53 62q-29 10 -111 10h-27z" />
<glyph unicode="&#xc8;" horiz-adv-x="942" d="M606 1501l-395 123l74 139l370 -170zM143 0v1366h742v-137h-576v-453h455v-137h-455v-502h592v-137h-758z" />
<glyph unicode="&#xc9;" horiz-adv-x="942" d="M442 1501l-49 92l371 170l74 -139zM143 0v1366h742v-137h-576v-453h455v-137h-455v-502h592v-137h-758z" />
<glyph unicode="&#xca;" horiz-adv-x="942" d="M199 1513l331 228l332 -228l-149 -26l-183 106l-182 -106zM145 0v1366h742v-137h-576v-453h455v-137h-455v-502h592v-137h-758z" />
<glyph unicode="&#xcb;" horiz-adv-x="942" d="M680 1509q-42 0 -73.5 31.5t-31.5 73.5q0 44 31 75t74 31q44 0 75 -31t31 -75q0 -43 -31.5 -74t-74.5 -31zM369 1509q-41 0 -73 32t-32 73q0 44 31 75t74 31q44 0 75 -31t31 -75q0 -43 -31 -74t-75 -31zM143 0v1366h742v-137h-576v-453h455v-137h-455v-502h592v-137h-758 z" />
<glyph unicode="&#xcc;" horiz-adv-x="454" d="M270 1501l-356 127l66 135l337 -170zM143 0v1366h166v-1366h-166z" />
<glyph unicode="&#xcd;" horiz-adv-x="454" d="M225 1542l-45 92l336 170l68 -135zM143 0v1366h166v-1366h-166z" />
<glyph unicode="&#xce;" horiz-adv-x="452" d="M92 1487l-135 26l276 228l277 -228l-135 -26l-142 106zM145 0v1366h166v-1366h-166z" />
<glyph unicode="&#xcf;" horiz-adv-x="454" d="M371 1513q-40 0 -69.5 30t-29.5 71t30 70.5t71 29.5t70.5 -29.5t29.5 -70.5q0 -42 -29.5 -71.5t-72.5 -29.5zM86 1513q-40 0 -69 30t-29 71t29.5 70.5t70.5 29.5t70.5 -29.5t29.5 -70.5q0 -42 -30 -71.5t-72 -29.5zM143 0v1366h166v-1366h-166z" />
<glyph unicode="&#xd0;" horiz-adv-x="1150" d="M145 0v647h-131v121h131v598h295q289 0 456 -180.5t167 -493.5q0 -204 -79.5 -367t-219.5 -245q-138 -80 -324 -80h-295zM311 137h129q211 0 329 143.5t118 399.5q0 257 -119 403t-328 146h-129v-461h279v-121h-279v-510z" />
<glyph unicode="&#xd1;" horiz-adv-x="1150" d="M381 1509l-88 52q78 153 203 153q57 0 135 -41q69 -35 106 -35q29 0 49 14.5t45 53.5l89 -49q-47 -80 -93.5 -114t-109.5 -34q-55 0 -137 43q-65 33 -99 33q-56 0 -100 -76zM137 0v1366h211l522 -1079v1079h144v-1366h-164l-569 1163v-1163h-144z" />
<glyph unicode="&#xd2;" horiz-adv-x="1150" d="M641 1501l-395 123l73 139l371 -170zM262 94q-83 89 -127.5 240.5t-44.5 343.5q0 199 44.5 352t127.5 242q117 123 324 123q230 0 353.5 -184.5t123.5 -528.5q0 -345 -124 -528t-359 -183q-94 0 -178.5 32.5t-139.5 90.5zM346 244q41 -71 95.5 -103t133.5 -32 q88 0 147.5 38.5t98.5 124.5q70 146 70 412q0 283 -78.5 428t-232.5 145q-90 0 -149 -38.5t-99 -124.5q-70 -146 -70 -410q0 -293 84 -440z" />
<glyph unicode="&#xd3;" horiz-adv-x="1150" d="M524 1501l-49 92l371 170l74 -139zM262 94q-83 89 -127.5 240.5t-44.5 343.5q0 199 44.5 352t127.5 242q117 123 324 123q230 0 353.5 -184.5t123.5 -528.5q0 -345 -124 -528t-359 -183q-94 0 -178.5 32.5t-139.5 90.5zM346 244q41 -71 95.5 -103t133.5 -32 q88 0 147.5 38.5t98.5 124.5q70 146 70 412q0 283 -78.5 428t-232.5 145q-90 0 -149 -38.5t-99 -124.5q-70 -146 -70 -410q0 -293 84 -440z" />
<glyph unicode="&#xd4;" horiz-adv-x="1150" d="M258 1513l332 228l332 -228l-150 -26l-182 106l-182 -106zM262 94q-83 89 -127.5 240.5t-44.5 343.5q0 199 44.5 352t127.5 242q117 123 324 123q230 0 353.5 -184.5t123.5 -528.5q0 -345 -124 -528t-359 -183q-94 0 -178.5 32.5t-139.5 90.5zM346 244q41 -71 95.5 -103 t133.5 -32q88 0 147.5 38.5t98.5 124.5q70 146 70 412q0 283 -78.5 428t-232.5 145q-90 0 -149 -38.5t-99 -124.5q-70 -146 -70 -410q0 -293 84 -440z" />
<glyph unicode="&#xd5;" horiz-adv-x="1150" d="M385 1509l-88 52q78 153 203 153q57 0 135 -41q69 -35 106 -35q29 0 49.5 15t45.5 53l88 -49q-47 -80 -93.5 -114t-109.5 -34q-55 0 -137 43q-65 33 -99 33q-56 0 -100 -76zM262 94q-83 89 -127.5 240.5t-44.5 343.5q0 199 44.5 352t127.5 242q117 123 324 123 q230 0 353.5 -184.5t123.5 -528.5q0 -345 -124 -528t-359 -183q-94 0 -178.5 32.5t-139.5 90.5zM346 244q41 -71 95.5 -103t133.5 -32q88 0 147.5 38.5t98.5 124.5q70 146 70 412q0 283 -78.5 428t-232.5 145q-90 0 -149 -38.5t-99 -124.5q-70 -146 -70 -410q0 -293 84 -440 z" />
<glyph unicode="&#xd6;" horiz-adv-x="1150" d="M741 1509q-42 0 -73 31.5t-31 73.5q0 44 30.5 75t73.5 31q44 0 75.5 -31t31.5 -75q0 -43 -32 -74t-75 -31zM430 1509q-41 0 -72.5 32t-31.5 73q0 44 30.5 75t73.5 31q44 0 75.5 -31t31.5 -75q0 -43 -31.5 -74t-75.5 -31zM262 94q-83 89 -127.5 240.5t-44.5 343.5 q0 199 44.5 352t127.5 242q117 123 324 123q230 0 353.5 -184.5t123.5 -528.5q0 -345 -124 -528t-359 -183q-94 0 -178.5 32.5t-139.5 90.5zM346 244q41 -71 95.5 -103t133.5 -32q88 0 147.5 38.5t98.5 124.5q70 146 70 412q0 283 -78.5 428t-232.5 145q-90 0 -149 -38.5 t-99 -124.5q-70 -146 -70 -410q0 -293 84 -440z" />
<glyph unicode="&#xd7;" d="M260 328l-94 92l262 262l-262 262l94 94l262 -262l262 262l95 -94l-263 -262l263 -262l-95 -92l-262 262z" />
<glyph unicode="&#xd8;" horiz-adv-x="1150" d="M139 -84l105 209q-146 198 -146 557q0 344 124 527.5t356 183.5q147 0 262 -78l61 123h119l-102 -207q135 -198 135 -547q0 -345 -121.5 -529t-349.5 -184q-142 0 -258 76l-64 -131h-121zM324 256l440 942q-78 64 -189 64q-88 0 -147.5 -40t-99.5 -126q-70 -146 -70 -416 q0 -264 66 -424zM397 158q70 -56 178 -56q89 0 148.5 40t99.5 126q70 146 70 416q0 256 -59 408z" />
<glyph unicode="&#xd9;" horiz-adv-x="1116" d="M616 1501l-395 123l74 139l371 -170zM973 1366v-885q0 -149 -16.5 -230t-57.5 -138q-103 -142 -344 -142q-237 0 -340 142q-38 54 -55 136t-17 214v903h166v-903q0 -126 10.5 -182.5t40.5 -92.5q62 -77 201 -77q85 0 137.5 25.5t83.5 82.5q20 38 27.5 91.5t7.5 160.5v895 h156z" />
<glyph unicode="&#xda;" horiz-adv-x="1116" d="M506 1501l-49 92l370 170l74 -139zM973 1366v-885q0 -149 -16.5 -230t-57.5 -138q-103 -142 -344 -142q-237 0 -340 142q-38 54 -55 136t-17 214v903h166v-903q0 -126 10.5 -182.5t40.5 -92.5q62 -77 201 -77q85 0 137.5 25.5t83.5 82.5q20 38 27.5 91.5t7.5 160.5v895 h156z" />
<glyph unicode="&#xdb;" horiz-adv-x="1116" d="M242 1513l331 228l332 -228l-149 -26l-183 106l-182 -106zM973 1366v-885q0 -149 -16.5 -230t-57.5 -138q-103 -142 -344 -142q-237 0 -340 142q-38 54 -55 136t-17 214v903h166v-903q0 -126 10.5 -182.5t40.5 -92.5q62 -77 201 -77q85 0 137.5 25.5t83.5 82.5 q20 38 27.5 91.5t7.5 160.5v895h156z" />
<glyph unicode="&#xdc;" horiz-adv-x="1116" d="M725 1509q-42 0 -73 31.5t-31 73.5q0 44 30.5 75t73.5 31q44 0 75 -31t31 -75q0 -43 -31.5 -74t-74.5 -31zM414 1509q-41 0 -73 32t-32 73q0 44 31 75t74 31q44 0 75 -31t31 -75q0 -43 -31 -74t-75 -31zM973 1366v-885q0 -149 -16.5 -230t-57.5 -138q-103 -142 -344 -142 q-237 0 -340 142q-38 54 -55 136t-17 214v903h166v-903q0 -126 10.5 -182.5t40.5 -92.5q62 -77 201 -77q85 0 137.5 25.5t83.5 82.5q20 38 27.5 91.5t7.5 160.5v895h156z" />
<glyph unicode="&#xdd;" horiz-adv-x="802" d="M350 1501l-49 92l371 170l73 -139zM319 0v578l-378 788h176l299 -629l295 629h151l-377 -788v-578h-166z" />
<glyph unicode="&#xde;" horiz-adv-x="976" d="M143 0v1366h166v-233h127q234 0 340 -76q74 -53 116 -141.5t42 -192.5q0 -114 -47 -203.5t-133 -138.5q-60 -34 -124.5 -45.5t-193.5 -11.5h-127v-324h-166zM309 461h127q98 0 151.5 10.5t88.5 36.5q86 61 86 215q0 76 -26.5 137.5t-73.5 95.5q-44 33 -115 39h-111h-127 v-534z" />
<glyph unicode="&#xdf;" horiz-adv-x="976" d="M135 -74v867h-125v122h125q0 122 5.5 171.5t25.5 107.5q35 106 127 166.5t217 60.5q137 0 229 -81.5t92 -202.5q0 -233 -346 -306q9 -30 34.5 -48t119.5 -64q164 -79 236.5 -168.5t72.5 -212.5q0 -163 -99 -265t-259 -102q-77 0 -178 35l37 121q79 -31 149 -31 q88 0 142.5 64t54.5 166q0 95 -58 159q-25 27 -52 44.5t-114 64.5q-114 60 -158 109.5t-44 115.5q0 34 16 86q131 30 184 60q59 33 86 71t27 92q0 80 -51 129.5t-133 49.5q-122 0 -176 -111q-22 -43 -29.5 -101.5t-7.5 -179.5v-989h-150z" />
<glyph unicode="&#xe0;" horiz-adv-x="942" d="M535 1151l-340 215l104 111l305 -254zM825 0h-143q-9 74 -12 180q-57 -114 -122.5 -161.5t-166.5 -47.5q-135 0 -217 83.5t-82 221.5q0 132 76 224q111 129 368 129q57 0 133 -8v43q0 129 -46 189t-144 60q-157 0 -199 -159l-147 24q12 60 33 98t59 70q106 92 266 92 q90 0 161.5 -30.5t111.5 -85.5q32 -44 42.5 -105t10.5 -196v-297q0 -159 3 -212t15 -112zM662 428l-3 72q-62 14 -116 14q-153 0 -228 -60.5t-75 -183.5q0 -84 44 -129t126 -45q114 0 185 92t67 240z" />
<glyph unicode="&#xe1;" horiz-adv-x="942" d="M457 1151l-70 72l305 254l105 -111zM825 0h-143q-9 74 -12 180q-57 -114 -122.5 -161.5t-166.5 -47.5q-135 0 -217 83.5t-82 221.5q0 132 76 224q111 129 368 129q57 0 133 -8v43q0 129 -46 189t-144 60q-157 0 -199 -159l-147 24q12 60 33 98t59 70q106 92 266 92 q90 0 161.5 -30.5t111.5 -85.5q32 -44 42.5 -105t10.5 -196v-297q0 -159 3 -212t15 -112zM662 428l-3 72q-62 14 -116 14q-153 0 -228 -60.5t-75 -183.5q0 -84 44 -129t126 -45q114 0 185 92t67 240z" />
<glyph unicode="&#xe2;" horiz-adv-x="942" d="M164 1192l321 242l322 -242l-145 -27l-177 125l-176 -125zM825 0h-143q-9 74 -12 180q-57 -114 -122.5 -161.5t-166.5 -47.5q-135 0 -217 83.5t-82 221.5q0 132 76 224q111 129 368 129q57 0 133 -8v43q0 129 -46 189t-144 60q-157 0 -199 -159l-147 24q12 60 33 98 t59 70q106 92 266 92q90 0 161.5 -30.5t111.5 -85.5q32 -44 42.5 -105t10.5 -196v-297q0 -159 3 -212t15 -112zM662 428l-3 72q-62 14 -116 14q-153 0 -228 -60.5t-75 -183.5q0 -84 44 -129t126 -45q114 0 185 92t67 240z" />
<glyph unicode="&#xe3;" horiz-adv-x="942" d="M295 1188l-82 49q39 82 83.5 121t102.5 39q32 0 59 -11.5t70 -42.5q62 -43 101 -43q28 0 46 16.5t40 61.5l82 -49q-46 -85 -87 -119t-98 -34q-56 0 -131 53q-59 43 -92 43q-28 0 -49.5 -19t-44.5 -65zM825 0h-143q-9 74 -12 180q-57 -114 -122.5 -161.5t-166.5 -47.5 q-135 0 -217 83.5t-82 221.5q0 132 76 224q111 129 368 129q57 0 133 -8v43q0 129 -46 189t-144 60q-157 0 -199 -159l-147 24q12 60 33 98t59 70q106 92 266 92q90 0 161.5 -30.5t111.5 -85.5q32 -44 42.5 -105t10.5 -196v-297q0 -159 3 -212t15 -112zM662 428l-3 72 q-62 14 -116 14q-153 0 -228 -60.5t-75 -183.5q0 -84 44 -129t126 -45q114 0 185 92t67 240z" />
<glyph unicode="&#xe4;" horiz-adv-x="942" d="M618 1176q-41 0 -70.5 29.5t-29.5 70.5q0 43 30 72.5t73 29.5q41 0 70.5 -29.5t29.5 -72.5q0 -41 -30 -70.5t-73 -29.5zM315 1176q-41 0 -70.5 29.5t-29.5 70.5q0 43 29.5 72.5t72.5 29.5q41 0 71 -30t30 -72q0 -41 -30 -70.5t-73 -29.5zM825 0h-143q-9 74 -12 180 q-57 -114 -122.5 -161.5t-166.5 -47.5q-135 0 -217 83.5t-82 221.5q0 132 76 224q111 129 368 129q57 0 133 -8v43q0 129 -46 189t-144 60q-157 0 -199 -159l-147 24q12 60 33 98t59 70q106 92 266 92q90 0 161.5 -30.5t111.5 -85.5q32 -44 42.5 -105t10.5 -196v-297 q0 -159 3 -212t15 -112zM662 428l-3 72q-62 14 -116 14q-153 0 -228 -60.5t-75 -183.5q0 -84 44 -129t126 -45q114 0 185 92t67 240z" />
<glyph unicode="&#xe5;" horiz-adv-x="942" d="M483 1120q-73 0 -127.5 54.5t-54.5 128.5q0 77 53.5 130.5t130.5 53.5t131 -54t54 -130q0 -75 -55 -129t-132 -54zM483 1210q40 0 68.5 27.5t28.5 65.5t-28.5 66t-66.5 28t-66 -28t-28 -66q0 -37 27.5 -65t64.5 -28zM825 0h-143q-9 74 -12 180q-57 -114 -122.5 -161.5 t-166.5 -47.5q-135 0 -217 83.5t-82 221.5q0 132 76 224q111 129 368 129q57 0 133 -8v43q0 129 -46 189t-144 60q-157 0 -199 -159l-147 24q12 60 33 98t59 70q106 92 266 92q90 0 161.5 -30.5t111.5 -85.5q32 -44 42.5 -105t10.5 -196v-297q0 -159 3 -212t15 -112z M662 428l-3 72q-62 14 -116 14q-153 0 -228 -60.5t-75 -183.5q0 -84 44 -129t126 -45q114 0 185 92t67 240z" />
<glyph unicode="&#xe6;" horiz-adv-x="1466" d="M1241 301l139 -33q-74 -297 -350 -297q-110 0 -183.5 49t-129.5 158q-66 -112 -142.5 -159.5t-189.5 -47.5q-139 0 -221 82.5t-82 222.5q0 63 20.5 123t55.5 101q111 129 364 129q57 0 133 -8v45q0 126 -45 186.5t-139 60.5q-157 0 -199 -159l-147 24q12 60 33 98t59 70 q109 92 262 92q197 0 287 -141q106 141 272 141q80 0 148 -34t114 -97q30 -42 53.5 -113t32.5 -147q9 -78 11 -160h-592q-2 -8 -2 -20q0 -180 59.5 -275.5t173.5 -95.5q78 0 124.5 46.5t80.5 158.5zM811 610h416q-2 147 -55 225t-152 78q-179 0 -209 -303zM240 272 q0 -84 44 -130t124 -46q110 0 179.5 95t69.5 247q0 35 -2 64q-69 14 -114 14q-301 0 -301 -244z" />
<glyph unicode="&#xe7;" horiz-adv-x="837" d="M346 -160l45 135q-307 50 -307 521q0 267 95.5 404.5t281.5 137.5q156 0 235 -94q37 -45 58 -97t41 -151l-152 -30q-20 126 -45 174q-43 73 -141 73q-112 0 -159.5 -101t-47.5 -341q0 -192 51 -282.5t160 -90.5q105 0 151 99q21 52 31 145l152 -18q-26 -181 -98 -259 t-224 -92l-18 -63q67 0 110 -14q41 -13 66.5 -47.5t25.5 -75.5q0 -69 -58.5 -116.5t-145.5 -47.5q-86 0 -179 55l25 66q85 -27 139 -27q92 0 92 64q0 46 -51 63q-31 8 -106 8q-4 2 -27 2z" />
<glyph unicode="&#xe8;" horiz-adv-x="907" d="M518 1151l-340 215l105 111l305 -254zM682 301l139 -33q-76 -297 -352 -297q-184 0 -284.5 136.5t-100.5 384.5q0 252 105.5 399t285.5 147q82 0 150 -34t114 -97q65 -87 88 -260q9 -78 11 -160h-596v-20q0 -371 235 -371q78 0 124.5 46.5t80.5 158.5zM250 610h418 q0 146 -54 224.5t-153 78.5q-187 0 -211 -303z" />
<glyph unicode="&#xe9;" horiz-adv-x="907" d="M446 1151l-69 72l305 254l104 -111zM682 301l139 -33q-76 -297 -352 -297q-184 0 -284.5 136.5t-100.5 384.5q0 252 105.5 399t285.5 147q82 0 150 -34t114 -97q65 -87 88 -260q9 -78 11 -160h-596v-20q0 -371 235 -371q78 0 124.5 46.5t80.5 158.5zM250 610h418 q0 146 -54 224.5t-153 78.5q-187 0 -211 -303z" />
<glyph unicode="&#xea;" horiz-adv-x="907" d="M160 1192l321 242l322 -242l-146 -27l-176 125l-176 -125zM682 301l139 -33q-76 -297 -352 -297q-184 0 -284.5 136.5t-100.5 384.5q0 252 105.5 399t285.5 147q82 0 150 -34t114 -97q65 -87 88 -260q9 -78 11 -160h-596v-20q0 -371 235 -371q78 0 124.5 46.5t80.5 158.5 zM250 610h418q0 146 -54 224.5t-153 78.5q-187 0 -211 -303z" />
<glyph unicode="&#xeb;" horiz-adv-x="907" d="M629 1176q-41 0 -71 29.5t-30 70.5q0 43 30 72.5t73 29.5q41 0 70.5 -29.5t29.5 -72.5q0 -41 -29.5 -70.5t-72.5 -29.5zM326 1176q-41 0 -71 29.5t-30 70.5q0 43 30 72.5t73 29.5q41 0 70.5 -29.5t29.5 -72.5q0 -41 -29.5 -70.5t-72.5 -29.5zM682 301l139 -33 q-76 -297 -352 -297q-184 0 -284.5 136.5t-100.5 384.5q0 252 105.5 399t285.5 147q82 0 150 -34t114 -97q65 -87 88 -260q9 -78 11 -160h-596v-20q0 -371 235 -371q78 0 124.5 46.5t80.5 158.5zM250 610h418q0 146 -54 224.5t-153 78.5q-187 0 -211 -303z" />
<glyph unicode="&#xec;" horiz-adv-x="417" d="M244 1151l-305 219l98 107l276 -254zM135 0v1010h150v-1010h-150z" />
<glyph unicode="&#xed;" horiz-adv-x="417" d="M193 1151l-70 72l276 254l99 -107zM135 0v1010h150v-1010h-150z" />
<glyph unicode="&#xee;" horiz-adv-x="417" d="M94 1165l-139 27l266 242l268 -242l-139 -27l-129 121zM141 0v1010h150v-1010h-150z" />
<glyph unicode="&#xef;" horiz-adv-x="417" d="M348 1180q-38 0 -67 29t-29 69t29 69t69 29q41 0 70 -29t29 -69q0 -41 -29.5 -69.5t-71.5 -28.5zM74 1180q-40 0 -68.5 29t-28.5 67q0 41 29 69.5t70 28.5q40 0 68 -28.5t28 -69.5q0 -40 -28.5 -68t-69.5 -28zM133 0v1010h150v-1010h-150z" />
<glyph unicode="&#xf0;" horiz-adv-x="907" d="M715 1331l-129 -78q70 -119 116 -215q77 -161 107.5 -280.5t30.5 -263.5q0 -251 -101 -387t-288 -136q-186 0 -285.5 139t-99.5 396q0 244 94 388t252 144q44 0 77 -12.5t74 -44.5q-47 110 -98 199l-137 -82l-52 86l140 84q-8 17 -15.5 31.5t-19.5 36.5t-23 42l111 68 q41 -65 66 -107l129 78zM453 96q109 0 165 104.5t56 305.5q0 198 -56.5 302.5t-162.5 104.5q-109 0 -166.5 -103.5t-57.5 -303.5q0 -201 56.5 -305.5t165.5 -104.5z" />
<glyph unicode="&#xf1;" horiz-adv-x="942" d="M285 1188l-82 49q39 82 83.5 121t102.5 39q32 0 59 -11.5t70 -42.5q62 -43 100 -43q28 0 46.5 17t40.5 61l81 -49q-46 -85 -86.5 -119t-97.5 -34q-56 0 -131 53q-59 43 -92 43q-28 0 -49.5 -19t-44.5 -65zM135 0v1010h139v-158q46 101 105.5 143.5t155.5 42.5 q89 0 154 -39t93 -110q25 -65 25 -246v-643h-150v623q0 103 -5.5 146t-20.5 75q-37 69 -131 69q-117 0 -174 -114q-23 -45 -32 -102t-9 -152v-545h-150z" />
<glyph unicode="&#xf2;" horiz-adv-x="942" d="M522 1151l-340 215l105 111l305 -254zM469 -29q-184 0 -284.5 138.5t-100.5 392.5q0 261 100 398.5t289 137.5q144 0 242 -88q143 -134 143 -446q0 -258 -100 -395.5t-289 -137.5zM471 96q109 0 165 104.5t56 305.5q0 198 -56.5 302.5t-162.5 104.5q-109 0 -166 -103.5 t-57 -303.5q0 -201 56 -305.5t165 -104.5z" />
<glyph unicode="&#xf3;" horiz-adv-x="942" d="M451 1151l-70 72l305 254l105 -111zM469 -29q-184 0 -284.5 138.5t-100.5 392.5q0 261 100 398.5t289 137.5q144 0 242 -88q143 -134 143 -446q0 -258 -100 -395.5t-289 -137.5zM471 96q109 0 165 104.5t56 305.5q0 198 -56.5 302.5t-162.5 104.5q-109 0 -166 -103.5 t-57 -303.5q0 -201 56 -305.5t165 -104.5z" />
<glyph unicode="&#xf4;" horiz-adv-x="942" d="M156 1192l321 242l322 -242l-146 -27l-176 125l-176 -125zM469 -29q-184 0 -284.5 138.5t-100.5 392.5q0 261 100 398.5t289 137.5q144 0 242 -88q143 -134 143 -446q0 -258 -100 -395.5t-289 -137.5zM471 96q109 0 165 104.5t56 305.5q0 198 -56.5 302.5t-162.5 104.5 q-109 0 -166 -103.5t-57 -303.5q0 -201 56 -305.5t165 -104.5z" />
<glyph unicode="&#xf5;" horiz-adv-x="942" d="M295 1188l-82 49q39 82 83.5 121t102.5 39q32 0 59 -11.5t70 -42.5q62 -43 101 -43q28 0 46 16.5t40 61.5l82 -49q-46 -85 -87 -119t-98 -34q-56 0 -131 53q-59 43 -92 43q-28 0 -49.5 -19t-44.5 -65zM469 -29q-184 0 -284.5 138.5t-100.5 392.5q0 261 100 398.5 t289 137.5q144 0 242 -88q143 -134 143 -446q0 -258 -100 -395.5t-289 -137.5zM471 96q109 0 165 104.5t56 305.5q0 198 -56.5 302.5t-162.5 104.5q-109 0 -166 -103.5t-57 -303.5q0 -201 56 -305.5t165 -104.5z" />
<glyph unicode="&#xf6;" horiz-adv-x="942" d="M625 1176q-41 0 -71 29.5t-30 70.5q0 43 30 72.5t73 29.5q41 0 70.5 -29.5t29.5 -72.5q0 -41 -29.5 -70.5t-72.5 -29.5zM322 1176q-41 0 -71 29.5t-30 70.5q0 43 30 72.5t73 29.5q41 0 70.5 -29.5t29.5 -72.5q0 -41 -29.5 -70.5t-72.5 -29.5zM469 -29 q-184 0 -284.5 138.5t-100.5 392.5q0 261 100 398.5t289 137.5q144 0 242 -88q143 -134 143 -446q0 -258 -100 -395.5t-289 -137.5zM471 96q109 0 165 104.5t56 305.5q0 198 -56.5 302.5t-162.5 104.5q-109 0 -166 -103.5t-57 -303.5q0 -201 56 -305.5t165 -104.5z" />
<glyph unicode="&#xf7;" d="M438 856v191h170v-191h-170zM104 621v124h838v-124h-838zM438 319v191h170v-191h-170z" />
<glyph unicode="&#xf8;" horiz-adv-x="942" d="M121 -96l88 176q-125 151 -125 426q0 255 100 393.5t283 138.5q117 0 205 -55l51 104h111l-86 -172q58 -76 84 -173.5t26 -239.5q0 -258 -100.5 -394.5t-290.5 -136.5q-94 0 -180 45l-58 -112h-108zM283 199l319 684q-50 35 -127 35q-239 0 -239 -410q0 -106 10.5 -174.5 t36.5 -134.5zM356 119q35 -17 55.5 -22t51.5 -5q244 0 244 412q0 169 -37 287z" />
<glyph unicode="&#xf9;" horiz-adv-x="942" d="M502 1151l-340 215l104 111l305 -254zM668 0v152q-51 -99 -110 -140t-152 -41q-88 0 -150.5 37.5t-91.5 108.5q-29 76 -29 256v637h150v-637q0 -148 14 -191q30 -86 139 -86q113 0 174 119q26 54 35.5 122t9.5 212v461h150v-1010h-139z" />
<glyph unicode="&#xfa;" horiz-adv-x="942" d="M449 1151l-70 72l305 254l104 -111zM668 0v152q-51 -99 -110 -140t-152 -41q-88 0 -150.5 37.5t-91.5 108.5q-29 76 -29 256v637h150v-637q0 -148 14 -191q30 -86 139 -86q113 0 174 119q26 54 35.5 122t9.5 212v461h150v-1010h-139z" />
<glyph unicode="&#xfb;" horiz-adv-x="942" d="M156 1192l321 242l322 -242l-146 -27l-176 125l-176 -125zM668 0v152q-51 -99 -110 -140t-152 -41q-88 0 -150.5 37.5t-91.5 108.5q-29 76 -29 256v637h150v-637q0 -148 14 -191q30 -86 139 -86q113 0 174 119q26 54 35.5 122t9.5 212v461h150v-1010h-139z" />
<glyph unicode="&#xfc;" horiz-adv-x="942" d="M633 1176q-41 0 -71 29.5t-30 70.5q0 43 30 72.5t73 29.5q41 0 70.5 -29.5t29.5 -72.5q0 -41 -29.5 -70.5t-72.5 -29.5zM330 1176q-41 0 -71 29.5t-30 70.5q0 43 30 72.5t73 29.5q41 0 70.5 -29.5t29.5 -72.5q0 -41 -29.5 -70.5t-72.5 -29.5zM668 0v152 q-51 -99 -110 -140t-152 -41q-88 0 -150.5 37.5t-91.5 108.5q-29 76 -29 256v637h150v-637q0 -148 14 -191q30 -86 139 -86q113 0 174 119q26 54 35.5 122t9.5 212v461h150v-1010h-139z" />
<glyph unicode="&#xfd;" horiz-adv-x="768" d="M385 1151l-70 72l306 254l104 -111zM51 -231q50 -9 70 -9q30 0 49 3t37.5 15.5t30.5 29t27 52t27.5 76.5t31.5 109l-285 965h149l207 -756l226 756h141l-348 -1112q-46 -149 -103 -206t-161 -57q-37 0 -99 11v123z" />
<glyph unicode="&#xfe;" horiz-adv-x="976" d="M285 131v-473h-150v1708h150v-535q47 107 106.5 153t151.5 46q160 0 256 -139.5t96 -372.5q0 -153 -40.5 -273t-115.5 -194q-74 -71 -198 -71q-91 0 -146.5 32.5t-109.5 118.5zM285 580v-152q0 -104 11.5 -149.5t49.5 -92.5q67 -82 160 -82q109 0 166 104.5t57 301.5 q0 184 -57.5 289.5t-157.5 105.5q-105 0 -174 -127q-55 -102 -55 -198z" />
<glyph unicode="&#xff;" horiz-adv-x="768" d="M559 1176q-41 0 -70.5 29.5t-29.5 70.5q0 43 29.5 72.5t72.5 29.5q41 0 71 -30t30 -72q0 -41 -30 -70.5t-73 -29.5zM256 1176q-41 0 -70.5 29.5t-29.5 70.5q0 43 29.5 72.5t72.5 29.5q41 0 70.5 -29.5t29.5 -72.5q0 -41 -29.5 -70.5t-72.5 -29.5zM51 -231q50 -9 70 -9 q30 0 49 3t37.5 15.5t30.5 29t27 52t27.5 76.5t31.5 109l-285 965h149l207 -756l226 756h141l-348 -1112q-46 -149 -103 -206t-161 -57q-37 0 -99 11v123z" />
<glyph unicode="&#x152;" horiz-adv-x="1675" d="M881 0v166q-66 -108 -139 -151.5t-189 -43.5q-223 0 -343 182.5t-120 520.5q0 349 123.5 535t353.5 186q111 0 183.5 -39.5t130.5 -132.5v143h747v-137h-590v-453h465v-137h-465v-502h598v-137h-755zM881 362v678q-76 217 -295 217q-166 0 -245 -147t-79 -457 q0 -278 78.5 -411t241.5 -133q229 0 299 253z" />
<glyph unicode="&#x153;" horiz-adv-x="1499" d="M1276 301l139 -33q-73 -297 -348 -297q-107 0 -180.5 44t-130.5 141q-104 -185 -295 -185q-180 0 -278.5 140t-98.5 395t98.5 393.5t280.5 138.5q103 0 177.5 -43.5t129.5 -136.5q64 95 135.5 137.5t165.5 42.5q169 0 264 -131q30 -42 53.5 -113t32.5 -147q9 -78 11 -160 h-590q2 -199 58 -295t173 -96q77 0 123.5 46t79.5 159zM850 610h412q-2 147 -54.5 225t-150.5 78q-177 0 -207 -303zM467 96q107 0 162 103.5t55 306.5q0 200 -54.5 303.5t-160.5 103.5q-107 0 -163 -103t-56 -302q0 -203 55 -307.5t162 -104.5z" />
<glyph unicode="&#x178;" horiz-adv-x="802" d="M567 1509q-42 0 -73 31.5t-31 73.5q0 44 30.5 75t73.5 31q44 0 75.5 -31t31.5 -75q0 -43 -32 -74t-75 -31zM256 1509q-41 0 -72.5 32t-31.5 73q0 44 30.5 75t73.5 31q44 0 75 -31t31 -75q0 -43 -31 -74t-75 -31zM319 0v578l-378 788h176l299 -629l295 629h151l-377 -788 v-578h-166z" />
<glyph unicode="&#x2c6;" horiz-adv-x="1024" d="M190 1192l322 242l322 -242l-146 -27l-176 125l-176 -125z" />
<glyph unicode="&#x2dc;" horiz-adv-x="1024" d="M301 1188l-82 49q38 82 83.5 121t103.5 39q32 0 59 -11.5t70 -42.5q62 -43 100 -43q28 0 46 16.5t40 61.5l82 -49q-46 -85 -87 -119t-98 -34q-56 0 -131 53q-59 43 -92 43q-28 0 -49.5 -19t-44.5 -65z" />
<glyph unicode="&#x2000;" horiz-adv-x="914" />
<glyph unicode="&#x2001;" horiz-adv-x="1829" />
<glyph unicode="&#x2002;" horiz-adv-x="914" />
<glyph unicode="&#x2003;" horiz-adv-x="1829" />
<glyph unicode="&#x2004;" horiz-adv-x="609" />
<glyph unicode="&#x2005;" horiz-adv-x="457" />
<glyph unicode="&#x2006;" horiz-adv-x="304" />
<glyph unicode="&#x2007;" horiz-adv-x="304" />
<glyph unicode="&#x2008;" horiz-adv-x="228" />
<glyph unicode="&#x2009;" horiz-adv-x="365" />
<glyph unicode="&#x200a;" horiz-adv-x="101" />
<glyph unicode="&#x2010;" horiz-adv-x="593" d="M72 446v123h450v-123h-450z" />
<glyph unicode="&#x2011;" horiz-adv-x="593" d="M72 446v123h450v-123h-450z" />
<glyph unicode="&#x2012;" horiz-adv-x="593" d="M72 446v123h450v-123h-450z" />
<glyph unicode="&#x2013;" d="M186 446v123h674v-123h-674z" />
<glyph unicode="&#x2014;" horiz-adv-x="1255" d="M63 446v123h1129v-123h-1129z" />
<glyph unicode="&#x2018;" horiz-adv-x="417" d="M98 940v201l133 248h91l-121 -236h84v-213h-187z" />
<glyph unicode="&#x2019;" horiz-adv-x="417" d="M98 915l121 236h-84v215h187v-203l-134 -248h-90z" />
<glyph unicode="&#x201a;" horiz-adv-x="417" d="M135 0v215h187v-203l-134 -248h-90l121 236h-84z" />
<glyph unicode="&#x201c;" horiz-adv-x="698" d="M377 940v201l133 248h90l-121 -236h84v-213h-186zM98 940v201l133 248h91l-121 -236h84v-213h-187z" />
<glyph unicode="&#x201d;" horiz-adv-x="698" d="M377 915l121 236h-84v215h186v-203l-133 -248h-90zM98 915l121 236h-84v215h187v-203l-134 -248h-90z" />
<glyph unicode="&#x201e;" horiz-adv-x="698" d="M414 0v215h186v-203l-133 -248h-90l121 236h-84zM135 0v215h187v-203l-134 -248h-90l121 236h-84z" />
<glyph unicode="&#x2022;" horiz-adv-x="1366" d="M686 410q-117 0 -201 82.5t-84 199.5q0 120 83.5 202.5t205.5 82.5q114 0 196.5 -83.5t82.5 -199.5q0 -118 -83 -201t-200 -83z" />
<glyph unicode="&#x2026;" horiz-adv-x="1464" d="M1128 0v221h187v-221h-187zM639 0v221h186v-221h-186zM152 0v221h186v-221h-186z" />
<glyph unicode="&#x202f;" horiz-adv-x="365" />
<glyph unicode="&#x2039;" horiz-adv-x="454" d="M270 223l-178 303l178 303h92l-94 -303l94 -303h-92z" />
<glyph unicode="&#x203a;" horiz-adv-x="454" d="M92 223l94 303l-94 303h92l178 -303l-178 -303h-92z" />
<glyph unicode="&#x205f;" horiz-adv-x="457" />
<glyph unicode="&#x20ac;" horiz-adv-x="1220" d="M86 518l51 123h90q-2 14 -2 47q0 23 2 35h-141l51 123h99q26 225 108 354q130 195 365 195q175 0 277.5 -101t146.5 -317l-158 -37q-19 89 -34 134t-36 77q-70 104 -192 104q-127 0 -204 -104.5t-97 -304.5h479l-51 -123h-437v-6q-2 -20 -2 -37q2 -23 2 -39h398l-51 -123 h-338q7 -96 43 -196q73 -211 260 -211q110 0 166 68t94 249l149 -37q-41 -224 -139.5 -322t-282.5 -98q-408 0 -466 547h-150z" />
<glyph unicode="&#x2122;" horiz-adv-x="1466" d="M598 547v778h186l170 -627l172 627h183v-778h-119v659l-184 -659h-115l-180 659v-659h-113zM227 547v678h-180v100h492v-100h-183v-678h-129z" />
<glyph unicode="&#x25fc;" horiz-adv-x="1013" d="M0 1014h1014v-1014h-1014v1014z" />
</font>
</defs>
</svg>
